<?xml version="1.0" encoding="utf-8" standalone="yes"?>
<!DOCTYPE svg PUBLIC "-//W3C//DTD SVG 1.1//EN" "http://www.w3.org/Graphics/SVG/1.1/DTD/svg11.dtd">
<svg width="588" height="577" viewBox="0 0 588 577" style="fill:none;stroke:none;fill-rule:evenodd;clip-rule:evenodd;stroke-linecap:round;stroke-linejoin:round;stroke-miterlimit:1.5;" version="1.1" xmlns="http://www.w3.org/2000/svg" xmlns:xlink="http://www.w3.org/1999/xlink"><style class="text-font-style fontImports" data-font-family="Roboto">@import url('https://fonts.googleapis.com/css2?family=Roboto:wght@400;700&amp;display=block');</style><rect id="" x="0" y="0" width="588" height="576" style="fill: #ffffff;"></rect><g id="items" style="isolation: isolate"><g id="blend" style="mix-blend-mode: normal"><g id="g-root-tf_18gc2bb12mw1ze-fill" data-item-order="-508032"><g id="tf_18gc2bb12mw1ze-fill" stroke="none" fill="#ffffff"><g><path d="M 0 -0.000008L 588 -0.000008L 588 575.999992L 0 575.999992Z"></path></g></g></g><g id="g-root-cr_0_cr-big_1qclynr12mdvcw-fill" data-item-order="-87871" transform="translate(218, 253.99996948242188)"></g><g id="g-root-sy_7_cu_1464x4n12mdukp-fill" data-item-order="-87867" transform="translate(166.0966796875, 169.97528076171875)"></g><g id="g-root-sy_6_cu_mfhdpz12mdts2-fill" data-item-order="-87863" transform="translate(133.994140625, 224.73895263671875)"></g><g id="g-root-sy_5_cu_940vcn12mdvcz-fill" data-item-order="-87859" transform="translate(137.89910888671875, 327.5627746582031)"></g><g id="g-root-sy_4_cu_1lynvsn12mdudo-fill" data-item-order="-87855" transform="translate(215.853515625, 368.5018615722656)"></g><g id="g-root-sy_3_cu_1480cdz12mdtl1-fill" data-item-order="-87851" transform="translate(304.45703125, 315.1986389160156)"></g><g id="g-root-sy_2_cu_qwju0n12mdv5y-fill" data-item-order="-87847" transform="translate(325.6549072265625, 225.13510131835938)"></g><g id="g-root-sy_1_cu_4g373r12mf8y7-fill" data-item-order="-87843" transform="translate(256.3560791015625, 169.97286987304688)"></g><g id="g-root-ic_4_5vyrb12mkw0e-fill" data-item-order="0" transform="translate(297.461669921875, 202.8106689453125)"></g><g id="g-root-tx_resource_v4960n12mf7yh-fill" data-item-order="0" transform="translate(26, 253.99996948242188)"><g id="tx_resource_v4960n12mf7yh-fill" stroke="none" fill="#484848"><g><text style="font: 20px Roboto, sans-serif; white-space: pre;" font-size="20px" font-family="Roboto, sans-serif"><tspan x="20.64" y="34" dominant-baseline="ideographic">Resource </tspan><tspan x="22.75" y="58" dominant-baseline="ideographic">Recovery</tspan></text></g></g></g><g id="g-root-ic_plan_1uqk1iv12mf9qg-fill" data-item-order="0" transform="translate(209.325927734375, 212.0570068359375)"></g><g id="g-root-ic_cont_zrkd6f12mjf2l-fill" data-item-order="0" transform="translate(359.6739501953125, 265.9219055175781)"></g><g id="g-root-ic_poll_1cxelrr12mm80f-fill" data-item-order="0" transform="translate(242, 277.9960632324219)"></g><g id="g-root-tx_efficien_8z12nr12mf9cd-fill" data-item-order="0" transform="translate(434, 265.9999694824219)"><g id="tx_efficien_8z12nr12mf9cd-fill" stroke="none" fill="#484848"><g><text style="font: 20px Roboto, sans-serif; white-space: pre;" font-size="20px" font-family="Roboto, sans-serif"><tspan x="12" y="34" dominant-baseline="ideographic">Efficiency</tspan></text></g></g></g><g id="g-root-ic_4_1q5qqpj12mgoht-fill" data-item-order="0" transform="translate(161.5660400390625, 286.7053527832031)"></g><g id="g-root-tx_sustaina_1lqjpo712mf7yg-fill" data-item-order="0" transform="translate(74, 145.99996948242188)"><g id="tx_sustaina_1lqjpo712mf7yg-fill" stroke="none" fill="#484848"><g><text style="font: 20px Roboto, sans-serif; white-space: pre;" font-size="20px" font-family="Roboto, sans-serif"><tspan x="20.74" y="34" dominant-baseline="ideographic">Sustainability</tspan></text></g></g></g><g id="g-root-ic_1_1in5j12mjg24-fill" data-item-order="0" transform="translate(349.1640625, 353.9158020019531)"></g><g id="g-root-ic_robo_mdlygn12mgmbm-fill" data-item-order="0" transform="translate(190.109130859375, 370.6023254394531)"></g><g id="g-root-tx_processe_1430jp312mf7ke-fill" data-item-order="0" transform="translate(350, 121.99996948242188)"><g id="tx_processe_1430jp312mf7ke-fill" stroke="none" fill="#484848"><g><text style="font: 20px Roboto, sans-serif; white-space: pre;" font-size="20px" font-family="Roboto, sans-serif"><tspan x="12" y="34" dominant-baseline="ideographic">Processes and </tspan><tspan x="12" y="58" dominant-baseline="ideographic">Technologies</tspan></text></g></g></g><g id="g-root-tx_industry_4hymd312mf7yi-fill" data-item-order="0" transform="translate(14, 409.9999694824219)"><g id="tx_industry_4hymd312mf7yi-fill" stroke="none" fill="#484848"><g><text style="font: 20px Roboto, sans-serif; white-space: pre;" font-size="20px" font-family="Roboto, sans-serif"><tspan x="79.92" y="34" dominant-baseline="ideographic">Industry </tspan><tspan x="19.07" y="58" dominant-baseline="ideographic">Advancements</tspan></text></g></g></g><g id="g-root-ic_leaf_1q8v45312mi2a3-fill" data-item-order="0" transform="translate(273.838134765625, 400.5998840332031)"></g><g id="g-root-tx_safetyst_v5i46v12mfa4k-fill" data-item-order="0" transform="translate(398, 409.9999694824219)"><g id="tx_safetyst_v5i46v12mfa4k-fill" stroke="none" fill="#484848"><g><text style="font: 20px Roboto, sans-serif; white-space: pre;" font-size="20px" font-family="Roboto, sans-serif"><tspan x="12" y="34" dominant-baseline="ideographic">Safety Standards</tspan></text></g></g></g><g id="g-root-tx_thepilla_dgq01j12mf7kf-fill" data-item-order="0" transform="translate(98, 38)"><g id="tx_thepilla_dgq01j12mf7kf-fill" stroke="none" fill="#484848"><g><text style="font: bold 25px Roboto, sans-serif; white-space: pre;" font-weight="bold" font-size="25px" font-family="Roboto, sans-serif"><tspan x="17.42" y="42.33" dominant-baseline="ideographic">The Pillars of Mining Expertise</tspan></text></g></g></g><g id="g-root-tx_environm_1cws4on12mf7rf-fill" data-item-order="0" transform="translate(206, 469.9999694824219)"><g id="tx_environm_1cws4on12mf7rf-fill" stroke="none" fill="#484848"><g><text style="font: 20px Roboto, sans-serif; white-space: pre;" font-size="20px" font-family="Roboto, sans-serif"><tspan x="15.78" y="34" dominant-baseline="ideographic">Environmental </tspan><tspan x="48.46" y="58" dominant-baseline="ideographic">Impact</tspan></text></g></g></g><g id="g-root-tf_18gc2bb12mw1ze-stroke" data-item-order="-508032"></g><g id="g-root-cr_0_cr-big_1qclynr12mdvcw-stroke" data-item-order="-87871" transform="translate(218, 253.99996948242188)"><g id="cr_0_cr-big_1qclynr12mdvcw-stroke" fill="none" stroke-linecap="round" stroke-linejoin="round" stroke-miterlimit="4" stroke="#808080" stroke-width="2"><g><path d="M 10 70C 10.000003 103.137088 36.862918 130.000003 70.000003 130.000003C 103.137088 130.000003 130.000003 103.137088 130.000003 70.000003C 130.000003 36.862918 103.137088 10.000003 70.000003 10.000003C 36.862918 10.000003 10.000003 36.862918 10.000003 70.000003"></path></g></g></g><g id="g-root-sy_7_cu_1464x4n12mdukp-stroke" data-item-order="-87867" transform="translate(166.0966796875, 169.97528076171875)"><g id="sy_7_cu_1464x4n12mdukp-stroke" fill="none" stroke-linecap="round" stroke-linejoin="round" stroke-miterlimit="4" stroke="#de58a9" stroke-width="2"><g><path d="M 73.8644 115.6274C 74.5116 116.144 75.4535 116.0371 75.9864 115.4034C 86.6933 102.6709 102.5958 94.4529 120.4282 94.0152C 121.2564 93.9949 121.9289 93.3252 121.9289 92.4968L 121.9289 63.6651C 121.9289 62.2169 119.8263 61.4161 118.5972 62.1821C 116.7465 63.3354 114.5591 63.9985 112.2175 63.9903C 105.5901 63.9672 100.2363 58.5759 100.2594 51.9485C 100.2826 45.3211 105.6739 39.9673 112.3013 39.9905C 114.6129 39.9985 116.7695 40.6597 118.5972 41.7986C 119.8263 42.5646 121.9289 41.7638 121.9289 40.3155L 121.9289 11.4923C 121.9289 10.6635 121.2564 9.991 120.4277 10.0001C 79.1434 10.4547 38.3883 28.5725 10.3337 62.988C 9.8103 63.6301 9.9147 64.577 10.5621 65.0939L 33.1498 83.1254C 34.3139 84.0546 33.5351 86.3555 32.1229 86.8291C 30.008 87.5383 28.0662 88.8447 26.5711 90.7176C 22.4364 95.8971 23.2833 103.4477 28.4628 107.5824C 33.6423 111.7171 41.1929 110.8702 45.3276 105.6907C 46.8227 103.8178 47.6665 101.6348 47.8895 99.4154C 48.0385 97.9334 50.1096 96.6641 51.2736 97.5934L 73.8644 115.6274Z"></path></g></g></g><g id="g-root-sy_6_cu_mfhdpz12mdts2-stroke" data-item-order="-87863" transform="translate(133.994140625, 224.73895263671875)"><g id="sy_6_cu_mfhdpz12mdts2-stroke" fill="none" stroke-linecap="round" stroke-linejoin="round" stroke-miterlimit="4" stroke="#e55753" stroke-width="2"><g><path d="M 105.965585 60.862485C 106.613285 61.379585 106.717285 62.322785 106.216085 62.982885C 98.569585 73.053285 94.031485 85.613285 94.031485 99.233185C 94.031485 103.282785 94.432685 107.238685 95.197385 111.063285C 95.359785 111.875085 94.855685 112.677485 94.048285 112.860885L 65.844985 119.268585C 64.394385 119.598185 64.093585 121.999485 65.156985 123.039785C 66.749685 124.597985 67.927385 126.617485 68.457785 128.951985C 69.926085 135.414685 65.877285 141.844085 59.414585 143.312385C 52.951785 144.780685 46.522485 140.731885 45.054185 134.269185C 44.523785 131.934685 44.713285 129.604585 45.476385 127.511085C 45.985785 126.113385 44.676985 124.077785 43.226385 124.407385L 15.072685 130.803785C 14.264885 130.987285 13.459685 130.478185 13.284385 129.668485C 3.890685 86.272085 15.157585 43.117885 40.558685 10.569685C 41.068585 9.916385 42.013685 9.810385 42.661385 10.327485L 65.252385 28.361585C 66.416485 29.290885 65.637585 31.591785 64.225385 32.065385C 62.110585 32.774585 60.168785 34.080985 58.673585 35.953885C 54.538885 41.133385 55.385785 48.683985 60.565285 52.818685C 65.744785 56.953385 73.295385 56.106485 77.430085 50.926985C 78.925185 49.054085 79.768985 46.871085 79.991985 44.651685C 80.140985 43.169685 82.212085 41.900385 83.376185 42.829685L 105.965585 60.862485Z"></path></g></g></g><g id="g-root-sy_5_cu_940vcn12mdvcz-stroke" data-item-order="-87859" transform="translate(137.89910888671875, 327.5627746582031)"><g id="sy_5_cu_940vcn12mdvcz-stroke" fill="none" stroke-linecap="round" stroke-linejoin="round" stroke-miterlimit="4" stroke="#de8431" stroke-width="2"><g><path d="M 104.477246 98.8923C 103.703246 97.6264 101.313146 97.3845 100.667346 98.7204L 88.106146 124.7047C 87.745546 125.4505 86.845346 125.7621 86.103246 125.394C 46.327446 105.6612 19.630746 69.9329 10.040846 29.7753C 9.848346 28.9691 10.355246 28.1644 11.163446 27.9808L 39.321546 21.5834C 40.772146 21.2538 42.081046 23.2895 41.571546 24.6872C 40.808446 26.7807 40.618946 29.1108 41.149346 31.4453C 42.617646 37.908 49.047046 41.9568 55.509746 40.4885C 61.972446 39.0202 66.021246 32.5908 64.552946 26.1281C 64.022546 23.7936 62.844846 21.7741 61.252046 20.2159C 60.188746 19.1755 60.489546 16.7742 61.940146 16.4446L 90.140746 10.0376C 90.949146 9.8539 91.751446 10.3617 91.954646 11.1654C 96.209946 27.9925 107.574546 41.9884 122.665746 49.7704C 123.401746 50.1499 123.714646 51.0447 123.354246 51.7902L 110.766846 77.8285C 110.121046 79.1644 111.795246 80.8873 113.268146 80.7076C 115.475246 80.4383 117.782746 80.7786 119.933346 81.8182C 125.900046 84.7027 128.398846 91.8781 125.514346 97.8448C 122.629846 103.8116 115.454546 106.3103 109.487746 103.4259C 107.337246 102.3863 105.637146 100.7893 104.477246 98.8923Z"></path></g></g></g><g id="g-root-sy_4_cu_1lynvsn12mdudo-stroke" data-item-order="-87855" transform="translate(215.853515625, 368.5018615722656)"><g id="sy_4_cu_1lynvsn12mdudo-stroke" fill="none" stroke-linecap="round" stroke-linejoin="round" stroke-miterlimit="4" stroke="#e0cb15" stroke-width="2"><g><path d="M 123.765 55.0751C 122.2954 54.892 120.6263 56.6015 121.2662 57.9371L 133.7445 83.9813C 134.1024 84.7284 133.7843 85.6263 133.0336 85.9766C 92.7968 104.7514 48.2188 103.3252 10.8519 85.7663C 10.1018 85.4138 9.7891 84.5157 10.1498 83.7695L 22.713 57.7814C 23.3587 56.4455 25.7488 56.6873 26.5228 57.9532C 27.6827 59.8501 29.3827 61.4471 31.5333 62.4868C 37.5001 65.3712 44.6754 62.8725 47.5599 56.9057C 50.4443 50.9389 47.9456 43.7636 41.9788 40.8791C 39.8283 39.8395 37.5208 39.4992 35.3137 39.7685C 33.8408 39.9482 32.1667 38.2253 32.8125 36.8894L 45.3989 10.8531C 45.7597 10.1069 46.6565 9.7965 47.4113 10.1389C 54.9599 13.5633 63.3433 15.4702 72.1721 15.4702C 80.9266 15.4702 89.2431 13.5953 96.7421 10.2251C 97.4981 9.8853 98.3938 10.1988 98.7519 10.9463L 111.236 37.0026C 111.8759 38.3382 114.2541 38.1085 115.0323 36.8485C 116.1986 34.9599 117.902 33.3726 120.0525 32.3423C 126.0293 29.4787 133.1959 32.0024 136.0595 37.9792C 138.9231 43.9561 136.3994 51.1226 130.4225 53.9863C 128.2721 55.0166 125.9676 55.3495 123.765 55.0751Z"></path></g></g></g><g id="g-root-sy_3_cu_1480cdz12mdtl1-stroke" data-item-order="-87851" transform="translate(304.45703125, 315.1986389160156)"><g id="sy_3_cu_1480cdz12mdtl1-stroke" fill="none" stroke-linecap="round" stroke-linejoin="round" stroke-miterlimit="4" stroke="#92bd39" stroke-width="2"><g><path d="M 71.6274 29.1033C 73.0707 29.4365 74.3754 27.4334 73.8759 26.039C 73.1273 23.949 72.9493 21.627 73.4858 19.3032C 74.9767 12.8457 81.4201 8.8194 87.8777 10.3102C 94.3352 11.8011 98.3615 18.2445 96.8707 24.7021C 96.3342 27.0259 95.1564 29.0348 93.5674 30.5851C 92.5071 31.6195 92.8017 33.9917 94.245 34.3249L 122.4166 40.8288C 123.2238 41.0152 123.7271 41.824 123.5325 42.6292C 113.1024 85.7883 84.1765 119.7372 47.1415 137.9855C 46.398 138.3519 45.501 138.0359 45.1429 137.2885L 32.6627 111.2403C 32.0228 109.9047 33.692 108.1952 35.1616 108.3783C 37.3642 108.6527 39.6686 108.3198 41.8191 107.2895C 47.7959 104.4259 50.3197 97.2593 47.456 91.2825C 44.5924 85.3057 37.4258 82.7819 31.449 85.6455C 29.2986 86.6758 27.5952 88.2632 26.4288 90.1517C 25.6507 91.4118 23.2725 91.6414 22.6326 90.3059L 10.1476 64.2477C 9.7898 63.5009 10.1059 62.6072 10.8432 62.2303C 25.9663 54.4988 37.3761 40.5383 41.6889 23.7325C 41.895 22.9296 42.699 22.4246 43.5067 22.6111L 71.6274 29.1033Z"></path></g></g></g><g id="g-root-sy_2_cu_qwju0n12mdv5y-stroke" data-item-order="-87847" transform="translate(325.6549072265625, 225.13510131835938)"><g id="sy_2_cu_qwju0n12mdv5y-stroke" fill="none" stroke-linecap="round" stroke-linejoin="round" stroke-miterlimit="4" stroke="#3cc583" stroke-width="2"><g><path d="M 21.16333 110.872415C 20.99823 111.683715 21.49953 112.487915 22.30623 112.674115L 50.42953 119.166915C 51.87273 119.500115 53.17743 117.497015 52.67803 116.102615C 51.92933 114.012515 51.75143 111.690615 52.28793 109.366815C 53.77873 102.909215 60.22223 98.882915 66.67973 100.373815C 73.13733 101.864615 77.16363 108.308115 75.67283 114.765615C 75.13633 117.089415 73.95843 119.098415 72.36943 120.648715C 71.30913 121.683115 71.60373 124.055415 73.04703 124.388615L 101.22283 130.893515C 102.03043 131.079915 102.83703 130.576015 103.01453 129.766415C 111.85843 89.438015 103.37303 45.651815 76.15043 10.574415C 75.64253 9.920015 74.69643 9.808715 74.04723 10.323315L 51.37043 28.296715C 50.20713 29.218815 48.15853 27.958915 48.01283 26.481715C 47.79453 24.268315 46.95893 22.089715 45.47473 20.217115C 41.35813 15.023215 33.81043 14.149915 28.61663 18.266515C 23.42273 22.383115 22.54943 29.930715 26.66603 35.124615C 28.15033 36.997215 30.08053 38.308215 32.18563 39.026215C 33.59053 39.505315 34.34933 41.787515 33.18603 42.709515L 10.57053 60.634315C 9.92103 61.149115 9.81363 62.092015 10.31253 62.753815C 17.88273 72.796015 22.37083 85.292415 22.37083 98.837015C 22.37083 102.959115 21.95513 106.984115 21.16333 110.872415Z"></path></g></g></g><g id="g-root-sy_1_cu_4g373r12mf8y7-stroke" data-item-order="-87843" transform="translate(256.3560791015625, 169.97286987304688)"><g id="sy_1_cu_4g373r12mf8y7-stroke" fill="none" stroke-linecap="round" stroke-linejoin="round" stroke-miterlimit="4" stroke="#1eabda" stroke-width="2"><g><path d="M 77.7466 115.5664C 78.2773 116.202 79.2189 116.3122 79.8678 115.7978L 102.4848 97.8718C 103.6481 96.9498 102.8893 94.6676 101.4844 94.1884C 99.3793 93.4704 97.449 92.1595 95.9648 90.2868C 91.8482 85.093 92.7215 77.5453 97.9154 73.4287C 103.1092 69.3121 110.6568 70.1854 114.7734 75.3793C 116.2577 77.2519 117.0932 79.4305 117.3115 81.644C 117.4572 83.1212 119.5059 84.3811 120.6692 83.4591L 143.3494 65.4829C 143.999 64.9681 144.1083 64.0234 143.5864 63.3795C 117.2934 30.9462 77.1803 10.1571 32.1723 10C 31.8947 9.999 31.6697 10.2241 31.6697 10.5017L 31.6697 40.318C 31.6697 41.7663 29.567 42.5671 28.3378 41.8011C 26.5102 40.6621 24.3535 40.001 22.0419 39.9929C 15.4145 39.9698 10.0232 45.3236 10.0001 51.9509C 9.9769 58.5783 15.3307 63.9696 21.9581 63.9928C 24.2998 64.0009 26.4871 63.3378 28.3379 62.1844C 29.567 61.4185 31.6697 62.2193 31.6697 63.6675L 31.6696 92.4993C 31.6696 93.3277 32.3421 93.9973 33.1703 94.0177C 51.0775 94.4573 67.0387 102.7426 77.7466 115.5664Z"></path></g></g></g><g id="g-root-ic_4_5vyrb12mkw0e-stroke" data-item-order="0" transform="translate(297.461669921875, 202.8106689453125)"><g id="ic_4_5vyrb12mkw0e-stroke" fill="none" stroke-linecap="round" stroke-linejoin="round" stroke-miterlimit="4" stroke="#1eabda" stroke-width="2"><g><path d="M 38.661251 38.946251C 37.753548 36.576172 35.467392 35.02079 32.929581 35.046707C 30.391766 35.072628 28.137856 36.674381 27.278749 39.0625M 37.256248 28.955C 37.282631 30.495913 36.475662 31.9312 35.145416 32.709373C 33.815166 33.487545 32.168583 33.487545 30.838337 32.709373C 29.508089 31.9312 28.701122 30.495913 28.727501 28.955M 34.4725 23.70875C 36.484051 24.359247 37.847069 26.232138 37.847504 28.346251M 28.096251 28.955L 28.096251 28.346251C 28.096268 26.108377 29.619925 24.157932 31.79125 23.616251M 26.877501 28.955L 39.0625 28.955M 24.15 32.099998L 23.24 31.091249C 22.880028 30.693302 22.368479 30.466249 21.831875 30.466249C 21.295271 30.466249 20.783722 30.693302 20.42375 31.091249L 19.512501 32.099998C 18.97444 32.694984 18.120354 32.887321 17.379189 32.580421C 16.638023 32.273518 16.169931 31.533691 16.209999 30.732498L 16.280001 29.375C 16.307205 28.839008 16.106165 28.316565 15.726675 27.937075C 15.347184 27.557585 14.82474 27.356544 14.28875 27.383749L 12.93125 27.452499C 12.129374 27.494091 11.388228 27.026127 11.081036 26.28426C 10.773843 25.542391 10.967205 24.687466 11.56375 24.15L 12.5725 23.24C 12.970448 22.880028 13.197501 22.368479 13.197501 21.831875C 13.197501 21.295271 12.970448 20.783722 12.5725 20.42375L 11.56375 19.51375C 10.967737 18.975885 10.774721 18.12114 11.081765 17.379349C 11.388809 16.63756 12.129458 16.169279 12.93125 16.209999L 14.28875 16.280001C 14.824632 16.306808 15.346841 16.10564 15.72624 15.72624C 16.10564 15.346841 16.306808 14.824632 16.280001 14.28875L 16.209999 12.93125C 16.169931 12.130057 16.638023 11.390229 17.379189 11.083327C 18.120354 10.776425 18.97444 10.968766 19.512499 11.56375L 20.42375 12.5725C 20.783722 12.970448 21.295271 13.197501 21.831875 13.197501C 22.368479 13.197501 22.880028 12.970448 23.24 12.5725L 24.15 11.56375C 24.687466 10.967205 25.542391 10.773843 26.28426 11.081036C 27.026127 11.388228 27.494091 12.129374 27.452499 12.93125L 27.383749 14.28875C 27.356544 14.82474 27.557585 15.347184 27.937075 15.726675C 28.316565 16.106165 28.839008 16.307205 29.374998 16.279999L 30.7325 16.209999C 31.53429 16.169279 32.27494 16.63756 32.581985 17.379349C 32.889027 18.12114 32.696011 18.975885 32.099998 19.51375L 31.091249 20.42375M 17.473751 21.831249C 17.473751 24.237831 19.424669 26.188751 21.831251 26.188751C 24.237831 26.188751 26.188751 24.237831 26.188751 21.831251C 26.188751 19.424669 24.237831 17.473751 21.831251 17.473751C 19.424669 17.473751 17.473751 19.424669 17.473751 21.831251M 33.983749 25.88625L 32.108749 25.88625L 31.689999 22.934999C 31.664495 22.754688 31.718903 22.57222 31.838991 22.43532C 31.959078 22.29842 32.132904 22.220705 32.314999 22.2225L 33.785 22.2225C 33.967098 22.220705 34.140923 22.29842 34.261009 22.43532C 34.381096 22.57222 34.435505 22.754688 34.41 22.934999Z"></path></g></g></g><g id="g-root-tx_resource_v4960n12mf7yh-stroke" data-item-order="0" transform="translate(26, 253.99996948242188)"></g><g id="g-root-ic_plan_1uqk1iv12mf9qg-stroke" data-item-order="0" transform="translate(209.325927734375, 212.0570068359375)"><g id="ic_plan_1uqk1iv12mf9qg-stroke" fill="none" stroke-linecap="round" stroke-linejoin="round" stroke-miterlimit="4" stroke="#de58a9" stroke-width="2"><g><path d="M 21.25 25.6425L 21.25 23.6525C 21.25 21.481251 21.849998 20.0075 22.780001 19.4725M 22.78125 19.4725C 22.78125 19.4725 19.483749 10.26625 30.772499 10.63625C 27.69375 13.125 30.133751 20.75 22.78125 19.4725ZM 19.536251 15.56875C 18.3825 14.56875 15.48625 12.735 10.7725 14.171249C 14.81375 16.80625 13.95875 23.186249 21.671249 20.940001M 37.625 12.04875L 27.6875 27.155001L 19.16625 30C 18.624323 30.167473 18.301054 30.722191 18.422501 31.276249L 18.422501 31.276249C 18.537945 31.801786 19.019226 32.164738 19.556252 32.131248L 30.067501 31.518749C 30.784357 31.477104 31.448696 31.129225 31.891251 30.563751L 39.375 21M 21.241249 35L 21.241249 39.375M 10.625 36.25L 17.5 36.25M 39.223751 36.25L 24.848749 36.25"></path></g></g></g><g id="g-root-ic_cont_zrkd6f12mjf2l-stroke" data-item-order="0" transform="translate(359.6739501953125, 265.9219055175781)"><g id="ic_cont_zrkd6f12mjf2l-stroke" fill="none" stroke-linecap="round" stroke-linejoin="round" stroke-miterlimit="4" stroke="#3cc583" stroke-width="2"><g><path d="M 10.9375 36.3125C 10.9375 28.5625 17.215374 22.312475 25 22.312475C 32.784622 22.312475 39.0625 28.5625 39.0625 36.3125M 25 38.5625C 26.0355 38.5625 26.875 37.723 26.875 36.6875C 26.875 35.651875 26.0355 34.8125 25 34.8125C 23.9645 34.8125 23.125 35.651875 23.125 36.6875C 23.125 37.723 23.9645 38.5625 25 38.5625ZM 10 10M 21.437525 26.9375L 24.3125 34.9375M 10 10M 28.5625 26.9375L 27.9375 28.6875M 10 10M 34 31.5625L 32.125 32.6875M 10 10M 15.999988 31.5625L 17.874989 32.6875M 10 10M 35.25 38.4375L 33.375 38.1875M 10 10M 14.749988 38.4375L 16.624989 38.1875M 10 10M 15.999988 11.437525L 18.827475 18.580688M 10 10M 15 17.437525L 18.75 18.687525L 20.750011 15.187525"></path></g></g></g><g id="g-root-ic_poll_1cxelrr12mm80f-stroke" data-item-order="0" transform="translate(242, 277.9960632324219)"><g id="ic_poll_1cxelrr12mm80f-stroke" fill="none" stroke-linecap="round" stroke-linejoin="round" stroke-miterlimit="4" stroke="#4e88e7" stroke-width="2"><g><path d="M 66.007004 62.448997C 62.07592 58.515747 55.700077 58.515747 51.769001 62.448997L 37.737999 76.204002C 37.018806 76.923828 36.803772 78.005882 37.193081 78.945999C 37.582394 79.886124 38.499458 80.499367 39.516998 80.5L 77.983002 80.5C 79.000542 80.499367 79.91761 79.886124 80.306923 78.945999C 80.696228 78.005882 80.481194 76.923828 79.762001 76.204002ZM 62.5 28.75C 62.5 29.164213 62.835785 29.5 63.25 29.5C 63.664215 29.5 64 29.164213 64 28.75C 64 28.335787 63.664215 28 63.25 28C 62.835785 28 62.5 28.335787 62.5 28.75M 67 40.75C 67 41.164215 67.335785 41.5 67.75 41.5C 68.164215 41.5 68.5 41.164215 68.5 40.75C 68.5 40.335785 68.164215 40 67.75 40C 67.335785 40 67 40.335785 67 40.75M 53.5 36.25C 53.5 36.664215 53.835785 37 54.25 37C 54.664215 37 55 36.664215 55 36.25C 55 35.835785 54.664215 35.5 54.25 35.5C 53.835785 35.5 53.5 35.835785 53.5 36.25M 61 49.75C 61 50.164215 61.335785 50.5 61.75 50.5C 62.164215 50.5 62.5 50.164215 62.5 49.75C 62.5 49.335785 62.164215 49 61.75 49C 61.335785 49 61 49.335785 61 49.75M 13 20.5L 19 20.5C 19 20.5 20.5 20.5 20.5 22L 20.5 37C 20.5 37 20.5 38.5 19 38.5L 13 38.5C 13 38.5 11.5 38.5 11.5 37L 11.5 22C 11.5 22 11.5 20.5 13 20.5M 20.5 23.5L 25.093 23.5C 25.093 23.5 32.872002 16.105 36.145 12.487C 36.714115 11.858124 37.522839 11.499539 38.370998 11.5L 61.186001 11.5C 61.186001 11.5 63.906998 19 43 19L 34.093002 27.907L 43.093002 25.843C 47.406998 24.810999 49.251999 28.756001 45.906998 30.907C 42.093018 32.794132 38.115723 34.331432 34.024002 35.5L 20.5 35.5M 42.153999 59.5C 39.564701 59.556168 37.097519 60.611839 35.269001 62.445999L 21.238001 76.204002C 20.518806 76.923828 20.303772 78.005882 20.693081 78.945999C 21.082392 79.886124 21.999458 80.499367 23.016998 80.5L 28 80.5"></path></g></g></g><g id="g-root-tx_efficien_8z12nr12mf9cd-stroke" data-item-order="0" transform="translate(434, 265.9999694824219)"></g><g id="g-root-ic_4_1q5qqpj12mgoht-stroke" data-item-order="0" transform="translate(161.5660400390625, 286.7053527832031)"><g id="ic_4_1q5qqpj12mgoht-stroke" fill="none" stroke-linecap="round" stroke-linejoin="round" stroke-miterlimit="4" stroke="#e55753" stroke-width="2"><g><path d="M 28.75 34.68375L 21.25 34.68375L 22.327501 32.529999C 22.433115 32.31805 22.649445 32.183994 22.88625 32.18375L 27.11375 32.18375C 27.350555 32.183994 27.566885 32.31805 27.672499 32.529999ZM 21.25 39.05875L 21.25 37.18375L 28.75 37.18375L 28.75 39.05875M 25 37.18375L 25 39.05875M 18.75 34.68375L 11.25 34.68375L 12.3275 32.529999C 12.433115 32.31805 12.649445 32.183994 12.88625 32.18375L 17.11375 32.18375C 17.350555 32.183994 17.566885 32.31805 17.672501 32.529999ZM 11.25 39.05875L 11.25 37.18375L 18.75 37.18375L 18.75 39.05875M 15 37.18375L 15 39.05875M 38.75 34.68375L 31.25 34.68375L 32.327499 32.529999C 32.433113 32.31805 32.649445 32.183994 32.88625 32.18375L 37.11375 32.18375C 37.350555 32.183994 37.566887 32.31805 37.672501 32.529999ZM 31.25 39.05875L 31.25 37.18375L 38.75 37.18375L 38.75 39.05875M 35 37.18375L 35 39.05875M 11.25 29.05875L 12.9425 27.3675C 13.059427 27.250206 13.21813 27.184116 13.38375 27.18375L 36.616249 27.18375C 36.781868 27.184116 36.940571 27.250206 37.057499 27.3675L 38.75 29.05875M 20 25.30875L 20 29.05875M 30 25.30875L 30 29.05875M 32.5 27.18375L 32.5 19.51C 32.500336 19.240641 32.328056 19.001368 32.072502 18.91625L 28.75 17.80875L 21.25 17.80875L 17.9275 18.91625C 17.671942 19.001368 17.499666 19.240641 17.5 19.51L 17.5 27.18375M 17.5 20.93375L 32.5 20.93375M 18.75 34.68375L 21.25 34.68375M 25.4625 17.809999C 23.68125 15.69625 21.0875 14.9225 17.241251 14.73375C 17.014599 14.722719 16.811733 14.589708 16.71125 14.38625L 15.45 11.8425C 15.353774 11.647276 15.366038 11.416052 15.482378 11.232103C 15.598718 11.048155 15.802374 10.937977 16.02 10.94125C 23.494999 11.04875 27.895 12.94125 30.285 18.31625M 28.75 34.68375L 31.25 34.68375"></path></g></g></g><g id="g-root-tx_sustaina_1lqjpo712mf7yg-stroke" data-item-order="0" transform="translate(74, 145.99996948242188)"></g><g id="g-root-ic_1_1in5j12mjg24-stroke" data-item-order="0" transform="translate(349.1640625, 353.9158020019531)"><g id="ic_1_1in5j12mjg24-stroke" fill="none" stroke-linecap="round" stroke-linejoin="round" stroke-miterlimit="4" stroke="#92bd39" stroke-width="2"><g><path d="M 18.75 15.34L 18.75 22.84M 31.25 15.34L 31.25 22.84M 27.5 15.5C 27.499962 15.194889 27.279629 14.934399 26.97875 14.88375C 25.668617 14.665418 24.331383 14.665418 23.02125 14.88375C 22.720371 14.934399 22.500038 15.194889 22.5 15.5L 22.5 21.59C 22.5 22.970713 23.619287 24.09 25 24.09C 26.380713 24.09 27.5 22.970713 27.5 21.59ZM 18.75 16.49C 15.25216 18.655107 13.124024 22.476294 13.125 26.59C 12.434644 26.59 11.875 27.149643 11.875 27.84L 11.875 29.09C 11.875 29.780355 12.434644 30.34 13.125 30.34L 16.161249 30.34L 16.616251 31.932499C 16.769173 32.46925 17.25939 32.839592 17.817501 32.84L 32.182499 32.84C 32.740608 32.839592 33.230827 32.46925 33.383751 31.932499L 33.838749 30.34L 36.875 30.34C 37.565353 30.34 38.125 29.780355 38.125 29.09L 38.125 27.84C 38.125 27.149643 37.565353 26.59 36.875 26.59C 36.875977 22.476294 34.747841 18.655107 31.25 16.49M 20.625 27.84L 29.375 27.84"></path></g></g></g><g id="g-root-ic_robo_mdlygn12mgmbm-stroke" data-item-order="0" transform="translate(190.109130859375, 370.6023254394531)"><g id="ic_robo_mdlygn12mgmbm-stroke" fill="none" stroke-linecap="round" stroke-linejoin="round" stroke-miterlimit="4" stroke="#de8431" stroke-width="2"><g><path d="M 26.13225 25.5315C 24.768625 26.895124 24.011 28.864876 24.011 30.834625L 24.011 33.410374C 24.011 35.077 22.647375 36.44075 20.980661 36.44075L 19.465488 36.44075C 17.7988 36.44075 16.43515 35.077 16.43515 33.410374L 16.43515 30.834625C 16.43515 28.864876 15.677563 26.895124 14.313912 25.5315C 12.79875 24.167875 11.88965 22.0466 11.88965 19.773849C 11.88965 15.22835 15.677563 11.440425 20.223076 11.440425C 21.877338 11.440425 23.43125 11.942125 24.73875 12.799462M 20.224613 36.440376L 20.224613 38.561626M 16.435551 30.380877L 24.011375 30.380877M 30.127499 14.65875L 35.610001 14.65875C 35.610001 14.65875 38.110001 14.65875 38.110001 17.158751L 38.110001 20.313751C 38.110001 20.313751 38.110001 22.813751 35.610001 22.813751L 30.127499 22.813751C 30.127499 22.813751 27.627501 22.813751 27.627501 20.313751L 27.627501 17.158751C 27.627501 17.158751 27.627501 14.65875 30.127499 14.65875M 10 10M 32.869877 11.441737L 32.869877 14.6582M 10 10M 31.151125 18.010637L 31.151125 19.462887M 10 10M 34.588627 18.010637L 34.588627 19.462887"></path></g></g></g><g id="g-root-tx_processe_1430jp312mf7ke-stroke" data-item-order="0" transform="translate(350, 121.99996948242188)"></g><g id="g-root-tx_industry_4hymd312mf7yi-stroke" data-item-order="0" transform="translate(14, 409.9999694824219)"></g><g id="g-root-ic_leaf_1q8v45312mi2a3-stroke" data-item-order="0" transform="translate(273.838134765625, 400.5998840332031)"><g id="ic_leaf_1q8v45312mi2a3-stroke" fill="none" stroke-linecap="round" stroke-linejoin="round" stroke-miterlimit="4" stroke="#e0cb15" stroke-width="2"><g><path d="M 25 39.375C 20.637501 38.637501 16.9 32.5 16.9 25C 16.9 17.5 20.75 11.525 25 10.625M 12.4 18.125L 25.650002 18.125M 10.65 24.375L 22.525002 24.375M 11.7875 30.625L 21.900002 30.625M 25.650002 21.25L 25.650002 10.6625C 25.4375 10.6625 25.237499 10.6625 25.025002 10.6625C 17.085907 10.6625 10.650001 17.098408 10.650001 25.0375C 10.650001 32.976593 17.085907 39.412502 25.025002 39.412502M 39.137501 18.125C 39.137501 18.125 41.3125 34.112503 31.862499 35.400002C 28.309162 35.782459 25.096949 33.26712 24.616188 29.725742C 24.135429 26.184364 26.560802 22.903694 30.0875 22.325001C 34.4375 21.725 39.137501 18.125 39.137501 18.125ZM 25.125 39.375C 25.5 35.825001 26.975 30.162498 32.362499 27.112499"></path></g></g></g><g id="g-root-tx_safetyst_v5i46v12mfa4k-stroke" data-item-order="0" transform="translate(398, 409.9999694824219)"></g><g id="g-root-tx_thepilla_dgq01j12mf7kf-stroke" data-item-order="0" transform="translate(98, 38)"></g><g id="g-root-tx_environm_1cws4on12mf7rf-stroke" data-item-order="0" transform="translate(206, 469.9999694824219)"></g></g></g><path id="wqqadvb13gtfka" d="M65.283 12.757a.35.35 0 0 0 .584.157l5.203-5.141-6.183 3.523.396 1.461zm-2.216-11.7a.35.35 0 0 0-.522.305v3.111l3.276-1.868-2.754-1.548zm3.728 2.105l-4.25 2.421v2.445l6.391-3.644-2.141-1.222zm4.708 3.303a.35.35 0 0 0 0-.609l-1.592-.9-7.365 4.199v1.782a.35.35 0 0 0 .523.305l8.435-4.777z M44.542 2.513c0-.433.355-.783.792-.783s.792.35.792.783-.355.783-.792.783-.792-.35-.792-.783zm59.171 0c0-.433.355-.783.792-.783s.792.35.792.783-.355.783-.792.783-.792-.35-.792-.783zm-85.951 7.636h-1.27v-.487c-.276.201-.864.609-1.881.609-1.202 0-2.274-.794-2.137-2.078.118-1.106 1.153-1.584 1.848-1.727l2.17-.345c0-.539-.29-.956-1.064-1.006s-1.21.305-1.571 1.017l-1.124-.605c1.218-2.631 5.029-1.764 5.029.414v4.207zm-1.27-2.86c.006.396-.062 1.112-.819 1.59-.587.37-1.841.299-1.903-.395-.049-.555.461-.791.906-.898l1.816-.297zm72.662 2.86h-1.27v-.487c-.276.201-.864.609-1.881.609-1.202 0-2.274-.794-2.137-2.078.118-1.106 1.153-1.584 1.848-1.727l2.17-.345c0-.539-.29-.956-1.064-1.006s-1.21.305-1.571 1.017l-1.124-.605c1.218-2.631 5.029-1.764 5.029.414v4.207zm-1.27-2.86c.006.396-.062 1.112-.82 1.59-.587.37-1.841.299-1.903-.395-.049-.555.461-.791.906-.898l1.816-.297zM99.096 10.149H97.85v-8.45h1.246v4.895l2.68-2.559h1.738l-2.633 2.535 2.715 3.578h-1.556l-2.077-2.707-.867.844v1.863zm6.053-6.114h-1.255v6.113h1.255V4.035zm-59.2 0h-1.255v6.113h1.255V4.035zm5.584 6.113V1.697h1.255v2.695c.361-.346 1-.485 1.47-.485 1.452 0 2.477 1.082 2.457 2.448v3.792h-1.27v-3.68c0-.408-.214-1.339-1.315-1.339-.968 0-1.342.756-1.342 1.339v3.681h-1.255zm-4.76-4.894V4.039h.621a.45.45 0 0 0 .45-.45v-.855h1.251v1.305h1.309v1.215h-1.309v3.109c0 .293.105.664.648.664.365 0 .531-.035.736-.07v1.137s-.361.113-.857.113c-1.398 0-1.777-1.051-1.777-1.788V5.254h-1.071zM36.528 4.039h-1.394l2.191 6.106h1.125l1.234-3.918 1.238 3.918h1.129l2.188-6.106h-1.383l-1.359 3.93-1.256-3.93h-1.124l-1.242 3.957-1.348-3.957zM26.212 7.141c-.02 1.566 1.187 3.129 3.223 3.129 1.566 0 2.383-.918 2.734-1.719L31.172 8c-.315.399-.801 1.094-1.738 1.094-1.145 0-1.825-.781-1.891-1.52h4.625c.074-.284.148-.995-.03-1.559-.336-1.064-1.221-2.102-2.839-2.102s-3.088 1.152-3.088 3.227zm1.363-.75h3.348c-.055-.43-.566-1.301-1.623-1.301a1.79 1.79 0 0 0-1.725 1.301zm-8.758.75c.038 1.758 1.277 3.133 3.145 3.133 1.074 0 1.723-.477 1.961-.672v.547h1.242V1.703h-1.258v2.888c-.414-.36-1.062-.68-1.93-.68-1.91 0-3.198 1.473-3.16 3.23zm1.309-.08c0 1.119.723 1.978 1.836 1.978a1.88 1.88 0 0 0 1.94-1.904c0-1.371-1.011-1.99-1.972-1.99s-1.805.798-1.805 1.916zm76.683-.028C96.771 5.275 95.532 3.9 93.664 3.9c-1.074 0-1.723.477-1.961.672v-.547h-1.242v8.22h1.258V9.583c.414.36 1.063.68 1.93.68 1.91 0 3.198-1.473 3.16-3.23zm-1.309.08c0-1.119-.723-1.978-1.836-1.978a1.88 1.88 0 0 0-1.94 1.904c0 1.371 1.011 1.99 1.972 1.99S95.5 8.231 95.5 7.113zM106.441 10.173V4.036h1.254v.382c.361-.346 1-.485 1.47-.485 1.452 0 2.477 1.082 2.457 2.448v3.792h-1.27V6.492c0-.408-.214-1.339-1.315-1.339-.969 0-1.342.756-1.342 1.339v3.681h-1.254zm-30.383-.021V1.824h1.084l4.215 5.777V1.824h1.32v8.328h-1.094l-4.207-5.796v5.796h-1.319zM5.24 10.149H4V2.377h1.014l2.664 3.597 2.654-3.592h1.03v7.766h-1.256V4.762L7.678 8.068 5.24 4.742v5.407z" transform="translate(452, 542)" fill="#80808088" stroke="none"></path></svg>